<svg width="1027" height="321" viewBox="0 0 1027 321" fill="none" xmlns="http://www.w3.org/2000/svg">
<path d="M172.961 5C145.353 5 118.875 15.9571 99.3534 35.4609C79.8315 54.9647 68.8643 81.4175 68.8643 109C68.9283 117.16 69.9213 125.256 71.8751 133.192H71.811C53.2195 134.55 35.8781 143.053 23.4284 156.914C10.9788 170.776 4.38956 188.918 5.04454 207.53C5.69952 226.142 13.5477 243.777 26.941 256.731C40.3343 269.685 58.2306 276.95 76.8717 277H317.095C330.407 276.985 343.543 273.956 355.516 268.14C367.488 262.324 377.985 253.872 386.218 243.42C394.451 232.968 400.205 220.787 403.048 207.794C405.891 194.8 405.749 181.332 402.633 168.401C399.517 155.47 393.507 143.413 385.056 133.137C376.605 122.86 365.932 114.631 353.84 109.068C341.748 103.504 328.551 100.752 315.24 101.018C301.93 101.283 288.854 104.559 276.993 110.6L277.057 109C277.057 81.4175 266.09 54.9647 246.568 35.4609C227.046 15.9571 200.569 5 172.961 5V5Z" stroke="#8802D5" strokeWidth="10" strokeLinecap="round" strokeLinejoin="round"/>
<path d="M460.224 279.08C451.904 279.08 444.784 277.32 438.864 273.8C432.944 270.28 428.384 265.28 425.184 258.8C422.064 252.32 420.504 244.6 420.504 235.64C420.504 226.76 422.064 219.08 425.184 212.6C428.384 206.12 432.944 201.12 438.864 197.6C444.784 194.08 451.904 192.32 460.224 192.32C466.064 192.32 471.424 193.24 476.304 195.08C481.264 196.92 485.464 199.6 488.904 203.12L485.064 211.16C481.384 207.72 477.544 205.24 473.544 203.72C469.624 202.12 465.264 201.32 460.464 201.32C450.944 201.32 443.664 204.32 438.624 210.32C433.584 216.32 431.064 224.76 431.064 235.64C431.064 246.6 433.584 255.08 438.624 261.08C443.664 267.08 450.944 270.08 460.464 270.08C465.264 270.08 469.624 269.32 473.544 267.8C477.544 266.2 481.384 263.68 485.064 260.24L488.904 268.28C485.464 271.72 481.264 274.4 476.304 276.32C471.424 278.16 466.064 279.08 460.224 279.08ZM537.308 279.08C529.468 279.08 522.628 277.32 516.788 273.8C511.028 270.2 506.548 265.16 503.348 258.68C500.228 252.2 498.668 244.52 498.668 235.64C498.668 226.76 500.228 219.08 503.348 212.6C506.468 206.12 510.908 201.12 516.668 197.6C522.508 194.08 529.388 192.32 537.308 192.32C545.308 192.32 552.188 194.08 557.948 197.6C563.788 201.12 568.268 206.12 571.388 212.6C574.588 219 576.188 226.64 576.188 235.52C576.188 244.4 574.588 252.12 571.388 258.68C568.188 265.16 563.668 270.2 557.828 273.8C552.068 277.32 545.228 279.08 537.308 279.08ZM537.308 270.32C546.348 270.32 553.348 267.28 558.308 261.2C563.268 255.12 565.748 246.6 565.748 235.64C565.748 224.68 563.268 216.2 558.308 210.2C553.348 204.12 546.348 201.08 537.308 201.08C528.428 201.08 521.508 204.12 516.548 210.2C511.588 216.2 509.108 224.68 509.108 235.64C509.108 246.52 511.588 255.04 516.548 261.2C521.508 267.28 528.428 270.32 537.308 270.32ZM593.78 278V193.4H627.26C636.38 193.4 643.34 195.6 648.14 200C653.02 204.4 655.46 210.68 655.46 218.84C655.46 226.92 653.02 233.2 648.14 237.68C643.34 242.08 636.38 244.28 627.26 244.28H603.62V278H593.78ZM603.62 236H626.06C639.18 236 645.74 230.28 645.74 218.84C645.74 207.32 639.18 201.56 626.06 201.56H603.62V236ZM689.649 278V237.92L657.249 193.4H668.769L694.809 229.28L720.729 193.4H731.889L699.489 238.16V278H689.649ZM724.721 278L762.041 193.4H770.441L807.761 278H797.561L788.201 256.4H744.161L734.921 278H724.721ZM766.121 204.92L747.761 248.12H784.721L766.361 204.92H766.121ZM820.303 278V193.4H854.143C862.863 193.4 869.583 195.36 874.303 199.28C879.103 203.12 881.503 208.52 881.503 215.48C881.503 220.12 880.303 224.08 877.903 227.36C875.503 230.64 872.183 233.04 867.943 234.56C872.823 235.84 876.623 238.2 879.343 241.64C882.143 245.08 883.543 249.44 883.543 254.72C883.543 262.24 881.103 268 876.223 272C871.343 276 864.463 278 855.583 278H820.303ZM829.903 231.2H852.703C865.423 231.2 871.783 226.24 871.783 216.32C871.783 206.32 865.423 201.32 852.703 201.32H829.903V231.2ZM829.903 270.08H854.623C867.423 270.08 873.823 264.92 873.823 254.6C873.823 244.28 867.423 239.12 854.623 239.12H829.903V270.08ZM901.397 278V193.4H911.237V269.36H954.317V278H901.397ZM966.553 278V193.4H1019.95V201.68H976.153V230.96H1017.43V239.24H976.153V269.72H1019.95V278H966.553Z" fill="#8802D5"/>
</svg>
