<svg width="154" height="120" viewBox="0 0 154 120" fill="none" xmlns="http://www.w3.org/2000/svg">
<path d="M127.761 35.3675C119.932 14.7009 99.9835 0 76.6159 0C53.2484 0 33.2997 14.6838 25.4706 35.3505C10.7526 39.2308 -0.0849681 52.6838 0.000502008 68.6496C0.103066 86.4958 13.9492 101.009 31.3851 102.564C32.1886 102.633 32.8723 102 32.8723 101.197V90.8719C32.8723 90.1881 32.3595 89.6069 31.6757 89.5214C27.0603 88.9402 22.7014 86.9231 19.3509 83.624C15.2484 79.6069 12.992 74.2052 12.992 68.4787C12.992 63.6923 14.5475 59.1795 17.4706 55.4188C20.3253 51.7607 24.3424 49.1111 28.7698 47.9488L35.2484 46.2393L37.6245 39.9658C39.0945 36.0684 41.1458 32.4103 43.727 29.1111C46.274 25.8291 49.2997 22.9573 52.6843 20.5641C59.7099 15.6239 67.9835 13.0086 76.6159 13.0086C85.2484 13.0086 93.5219 15.6239 100.548 20.5812C103.949 22.9744 106.958 25.8462 109.505 29.1282C112.086 32.4274 114.137 36.0855 115.607 39.9829L117.966 46.2393L124.428 47.9488C133.693 50.4103 140.172 58.8376 140.172 68.4616C140.172 74.2052 137.915 79.5898 133.813 83.6069C130.479 86.8889 126.137 88.9231 121.522 89.5043C120.838 89.5898 120.342 90.171 120.342 90.8548V101.197C120.342 102 121.043 102.633 121.847 102.564C139.231 100.992 153.043 86.4958 153.163 68.6838C153.266 52.718 142.445 39.265 127.761 35.3675V35.3675Z" fill="#8802D5"/>
<path d="M53.4877 84.5127C53.7954 78.7862 56.1715 73.4528 60.2399 69.3674C64.5818 65.0084 70.4963 62.564 76.6501 62.564C82.8382 62.564 88.6672 64.9742 93.0604 69.3674C93.2997 69.6067 93.5219 69.846 93.7613 70.1024L89.4878 73.4529C89.2841 73.6104 89.1291 73.8221 89.0405 74.0638C88.9519 74.3055 88.9333 74.5673 88.9869 74.8191C89.0405 75.0709 89.164 75.3024 89.3434 75.4871C89.5227 75.6718 89.7505 75.8021 90.0006 75.8631L106.787 79.9657C107.642 80.1708 108.479 79.5212 108.479 78.6494L108.565 61.3332C108.565 60.1879 107.266 59.5383 106.36 60.2563L102.394 63.3674C96.1373 56.1879 86.9407 51.6409 76.6672 51.6409C58.3082 51.6409 43.3339 66.1879 42.5817 84.4101C42.5476 85.1793 43.1629 85.8289 43.9493 85.8289H52.1373C52.8553 85.8118 53.4535 85.2477 53.4877 84.5127ZM109.231 85.8118H101.043C100.325 85.8118 99.7271 86.3759 99.6758 87.111C99.3681 92.8375 96.992 98.1708 92.9236 102.256C88.5818 106.615 82.6672 109.06 76.5134 109.06C70.3253 109.06 64.4963 106.649 60.1031 102.256C59.8638 102.017 59.6416 101.778 59.4023 101.521L63.6758 98.1708C63.8794 98.0133 64.0344 97.8015 64.123 97.5598C64.2116 97.3181 64.2302 97.0564 64.1766 96.8046C64.123 96.5528 63.9995 96.3212 63.8202 96.1365C63.6409 95.9519 63.413 95.8215 63.163 95.7606L46.3766 91.658C45.5219 91.4529 44.6843 92.1024 44.6843 92.9742L44.6159 110.308C44.6159 111.453 45.9151 112.102 46.8211 111.384L50.7869 108.273C57.0433 115.453 66.2399 120 76.5134 120C94.8724 120 109.847 105.453 110.599 87.2306C110.633 86.4614 110.018 85.8118 109.231 85.8118Z" fill="#8802D5"/>
</svg>
